/* XPM */
static char *_16a3f6e9ce348f9d7e6722c4c45ec35aW8fFLOnq66nwDoZ[] = {
/* columns rows colors chars-per-pixel */
"64 64 25 1 ",
"  c gray22",
". c #007070",
"X c #007878",
"o c black",
"O c #007474",
"+ c #006C6C",
"@ c #008C8C",
"# c #009898",
"$ c #008484",
"% c #74C8C8",
"& c #007C7C",
"* c #005858",
"= c #20B4B4",
"- c #004040",
"; c #20B0B0",
": c #48C0C0",
"> c #00A4A4",
", c #9CDCDC",
"< c #009C9C",
"1 c #D8F4F4",
"2 c #B8E8E8",
"3 c #00CCCC",
"4 c #484848",
"5 c gray33",
"6 c white",
/* pixels */
"                                                                ",
".XXXXXXXXXXXXXXXXXXXXXXXXXXXoooooo.XXXXXXXXXXOOO...+++..OOXXXX  ",
".@#$%@@@@@@@@@@@@@@@@@@#$%$Xoooooo.&.*=$$&&&&&XXOXOOOXXX$..=$X  ",
".$&-$;;;;;;;=====%%%::#&-$;Xoooooo.&.-*$$&&&&X&OOOOOXX&&O.-.#X  ",
".$X&X;;;;======:%%%:::#X&X=&oooooo.&...$&$&&&&OXOO.OO&X&O...#&  ",
".$##>;;======:%%%%::::###>=&oooooo.XXXX&$&&&&XXOO.OOXX&&OO&&#&  ",
".$;;===$..****-------======&oooooo.X$$&$&.**-----------$$$@#>&  ",
".$=====,<<$$$....***-==;==;$oooooo.X$&$&&..***********-$$@@#>$  ",
".$=====,,:%%%%::::=*-=;=;;;$oooooo.X&$&&&X.XOO.O.OO&X*-$$@###$  ",
".$===::12%%,%:::===*-;=;;;>$oooooo.X$&&&&X.OO.O.OOXX&*-$@@#>>$  ",
".$=::::12,,%:::===;*-;;;;>>$oooooo.X&&&&X&OOOO.OOXX&&*-$@@#>>$  ",
".$:::%%12%%:::===;=*-;;;>>>$oooooo.X&&&X&&XOO..OXX&&&*-@@###>$  ",
".$:%%,,12:::====;=;*-;>>>>#$oooooo.X&&X&X&XO...OOXX&&*-@@##>>$  ",
".$%2,,%12::====;=;;*->>>###&oooooo.X&X&XX&X...OOXX&&&*-@##>#>@  ",
".$2,,%%12:====;=;;;*->####@&oooooo.X&&XXO&XO.OOXX&&&$*-@###>>@  ",
".$,%%%:12====;;;;;;*-#>##@@&oooooo.X&XXOO&X.OOXX&X&&$*-@##>>>@  ",
".$%%:::12=;=;;;;;>>*->#@@@@&oooooo.XXXOO.&X.OOOXX&&$$*-##>#>>@  ",
".$%:::=1,;=;;;;;>>#*-#@#@@@&oooooo.X&XXOO&X.OOXX&&&$$*-###>>;@  ",
".$::==;1,=;;;;;>>#>*-@#@@@$&oooooo.&XXOO.&&OXXX&&&$$$*-##>>>;@  ",
".$:==;=1,;;;;>>>#>#*-#@@@$$Xoooooo+XXOO.O&&OXX&X&&$$@*-#>>>>;@  ",
".$====;1,;;;>>>#>##*-@@@$$$Xoooooo+XOO.O.&&XOXX&&$$@$*->#>>;;@  ",
".$=;==;1,;;>>>#>###*-@@$$$$Xoooooo+OO.O..&&OXX&X&$$$@*-#>>>;;@  ",
".$;==;;1,;>>>#>###@*-@$$$$$Xoooooo+O.O...$$XX&X&&$$@@*->>>>;=@  ",
".$=;;;;1,>>>#>###@@*-$@$$$$Xoooooo+.O...O$$X&X&&$$@$#*-#>>>;=@  ",
".$;;;;;1,>>#####@#@*-@$$$$&Ooooooo+O...OO@$XX&&&$@$@@*->>>;=;@  ",
".$;;;;>1,>#####@#@@*-$$$$&&Ooooooo+.O...O@$X&X&$$$@@#*->>>;=:@  ",
".$;;>>>1,#>###@#@@@*-$$$&&&Ooooooo++...OX@$&X&&$$@@#@.->>>;=:@  ",
".$;>>>>1,>###@#@@@@*-$$&&&&Ooooooo++..OOX@$X&&$$@$@@#.->>;;=:@  ",
".$>>>>>1,###@#@@@@$*-$&$&&&Ooooooo++.OOXO#$&&&$$$@@##.->>;=::@  ",
".$>>>>#1,##@#@@@@$$*-&$&&&&Ooooooo++OOOOX#$X&$$$@@##>.->>;=::@  ",
".$#.2#>1,#@#@@@@$$$*-$&O*>X.oooooo+++*@XX#@&&$$@@#@##.->;#=1:@  ",
".$&-.>#1,@##@@@$$$$*-&O+-*X.oooooo+++-*X&#@&$$@$@@##>.->#&.=:@  ",
".$X&X##1,##@@@$@$$$*-&O+++X.oooooo+.++.XX>@&$$$@@##>#.->#X&@%@  ",
".$##>##1,#@@@$@$$$$*-&OOOOX.oooooo+....X&>@$$$@@#@##>.->###:%@  ",
".$>###@1,@@@$@$$$$&*-&&&XXO.oooooo+OXXX&&>#$$@@@@##>#.-;;=:%%@  ",
".$###@#1,@@$@$$$$&&*-&&XXOO.oooooo+OXX&X&>#$@$@###>#>.-;=::%%@  ",
".$##@#@1,@$@$$$$&&&*-&XXOXO+oooooo+OOXX&$;#$$@@#@##>>.-;=:%3%@  ",
".$#@#@@1,$@$$$$&$&&*-XXXXOO+oooooo+OXX&X&;>$@@@@##>#>.-;=:%%%@  ",
".$@#@#@,,@$$$$&$&&&*-XXXOO.+oooooo+XX&&&&;>@@@@##>#>>.-==:%%:@  ",
".$#@#@@,%$$$$&$&&&&*-XXOO.O+oooooo+X&X&&&=>$@@####>>>.-=::%%:@  ",
".$@#@@@,%$$$&$&&&&X*-XOOOO.+oooooo+XX&&&$=>@@#@##>#>>.-=::%%:@  ",
".$#@@@@,%$$$$&&&&X&*-OOOO.O+oooooo+X&&&&$=>@@@##>#>#>.-=:%%%:@  ",
".$@@@@$:%$$$&&&&X&X*-XOO.O.+oooooo+X&&&$&=>@@####>#>>.-::%%%:@  ",
".$@@@$@::$$&&&&X&XX*-OO.O..+oooooo+X&&&&$:>@#@##>#>>;$-::%%%:@  ",
".$@@$@$::$&&&&&&XXX*-O.O...+oooooo+X&&&$&%;@@##>#>>>;$-::%%%:@  ",
".$@$@$$==&$&&&&XXXX*-.O....+oooooo.X&&$&$%;@####>#>>;$-:%%%%:@  ",
".$$@$$$==$&&&&XXXXO*-O.....+oooooo.X&$&$$%=####>#>>>;$-:%%%::@  ",
".$@$$$$=;&&&&XXXXOO*-.....O+oooooo.X&&$&$%=@##>#>>>;;$-:%%%::@  ",
".$$$$$$;;&&&X&XXOXO*-O...O..oooooo.X&$&$@,:####>#>>;;$-:%%%:=@  ",
".$$$$$$;>&&X&XXOXOO*-.....O.oooooo.X$&$$@,:###>#>>>;=$-%%%%:=@  ",
".$$$$$&;>&X&XXXXOO.*-....OO.oooooo.X&$&@@,:##>#>>>;;=$-%%%%:=@  ",
".$$$$&$>>&&XXXXOOOO*-...OOO.oooooo.X$&$@@,:#>#>#>>;;=<*%%%%:=@  ",
".$$$&$&>#&XXXXOOOO.*-..O.OO.oooooo.&&$$@@1%##>#>>>;;=<*%%%%:=@  ",
".$$&$&&##XXXXOOOO..*-...OOX.oooooo.&$$@@#1%#>#>>>;;=:<*%%%::=@  ",
".$&$&&&##&XXOXOO.O.*-..OOOX.oooooo.&$$@@#1%>#>>>>;;=:<$%%%::=@  ",
".$$&&&&#@XXOXOO.O..*-.O.OXX.oooooo.&$@@##1,#>#>>>;;=:<$%%%::=@  ",
".$&&&&X@@XOXOO.O...**O.OOXOOoooooo.&$@@##1,>#>>>>;=:%>;%%%:==@  ",
".$&&&X&@@@@$$&&&XXXO*.OOXOXOoooooo.&@@@##1,,,,,222222=%%%%:==@  ",
".$+*#&&@@$$$&&&XXXXX+OO+*#XOoooooo.&#.=##11111111111111%%=.2=@  ",
".X+-*&XXXOOOO......OOO.+-*&Ooooooo.&&-.###>>>>>>;;=::%%%%@-.=@  ",
".O+++XXXOXOO.O.....O.O.+++&Ooooooo.&X&X##>>>>>>;;=::%%%%:@&X=@  ",
".OOOOXXOXOO.O.....O.OO....&Ooooooo.&##>##>>>>>>;==::%%%%=##>=@  ",
".......++++++++++++........Xoooooo...........................X44",
"5555555555555555555555555554      455555555555555555555555555555"
};
