/* XPM */
static char *_f152e9d25cb4dece210699437c66827hP7irjRzXljXw4fP[] = {
/* columns rows colors chars-per-pixel */
"64 64 256 2 ",
"   c #36100B",
".  c #3B291A",
"X  c #39393B",
"o  c #322A2D",
"O  c #571806",
"+  c #4B140A",
"@  c #671903",
"#  c #721E02",
"$  c #5A2607",
"%  c #482717",
"&  c #552816",
"*  c #583219",
"=  c #4C2A14",
"-  c #692705",
";  c #762906",
":  c #68340A",
">  c #7A350B",
",  c #672C16",
"<  c #772C16",
"1  c #69371A",
"2  c #793717",
"3  c #472A24",
"4  c #48342A",
"5  c #583828",
"6  c #473A36",
"7  c #573C37",
"8  c #552C29",
"9  c #683926",
"0  c #783A26",
"q  c #663936",
"w  c #743834",
"e  c #3E403F",
"r  c #78451B",
"t  c #6F431E",
"y  c #5B422A",
"u  c #53443C",
"i  c #5B433C",
"p  c #5A4636",
"a  c #4B443D",
"s  c #6B4528",
"d  c #784629",
"f  c #6B4C3C",
"g  c #674736",
"h  c #764937",
"j  c #6A513B",
"k  c #78543A",
"l  c #7E5129",
"z  c #353B43",
"x  c #1C3240",
"c  c #4E3B43",
"v  c #6C3C42",
"b  c #3C4549",
"n  c #374C55",
"m  c #3D5A68",
"M  c #484749",
"N  c #574946",
"B  c #5A5249",
"V  c #474B54",
"C  c #574C56",
"Z  c #495359",
"A  c #595758",
"S  c #674C45",
"D  c #774B46",
"F  c #685548",
"G  c #745443",
"H  c #7B5343",
"J  c #73554C",
"K  c #775A49",
"L  c #685856",
"P  c #785956",
"I  c #674D54",
"U  c #6A625A",
"Y  c #7C635C",
"T  c #776358",
"R  c #7D6149",
"E  c #4A5864",
"W  c #585B63",
"Q  c #4A5C70",
"!  c #655C63",
"~  c #755F66",
"^  c #5A646A",
"/  c #546A78",
"(  c #696666",
")  c #796666",
"_  c #7C7169",
"`  c #756C73",
"'  c #797575",
"]  c #696F75",
"[  c #5F605A",
"{  c #862D06",
"}  c #883407",
"|  c #963904",
" . c #873918",
".. c #963C18",
"X. c #912F02",
"o. c #A33B07",
"O. c #A13E18",
"+. c #883B25",
"@. c #913B2B",
"#. c #A43E25",
"$. c #984506",
"%. c #894419",
"&. c #984517",
"*. c #9A541B",
"=. c #8A4B13",
"-. c #A74506",
";. c #B64A04",
":. c #AC5709",
">. c #B45403",
",. c #B95808",
"<. c #A74917",
"1. c #B54B16",
"2. c #A75718",
"3. c #B85618",
"4. c #BC621B",
"5. c #BA6315",
"6. c #AD6116",
"7. c #884728",
"8. c #974727",
"9. c #8A552B",
"0. c #985429",
"q. c #864A37",
"w. c #994938",
"e. c #865739",
"r. c #985637",
"t. c #A74927",
"y. c #B64C27",
"u. c #A85628",
"i. c #B85729",
"p. c #A64D36",
"a. c #A85738",
"s. c #B85A37",
"d. c #B54F34",
"f. c #99633A",
"g. c #8F613E",
"h. c #A86228",
"j. c #B86728",
"k. c #A7683A",
"l. c #B96637",
"z. c #BA743B",
"x. c #C35604",
"c. c #C6591A",
"v. c #C74C0A",
"b. c #C7620C",
"n. c #C96818",
"m. c #D86B16",
"M. c #D66A11",
"N. c #E77115",
"B. c #C55A28",
"V. c #D35D24",
"C. c #C65C38",
"Z. c #CB5630",
"A. c #C86627",
"S. c #C9732C",
"D. c #D87328",
"F. c #C86637",
"G. c #D66937",
"H. c #C97236",
"J. c #D77537",
"K. c #D66829",
"L. c #E77827",
"P. c #E66838",
"I. c #E57837",
"U. c #E9702D",
"Y. c #854945",
"T. c #865848",
"R. c #985946",
"E. c #875C55",
"W. c #9A534C",
"Q. c #A75847",
"!. c #B65B45",
"~. c #A65D55",
"^. c #B0534B",
"/. c #8A6448",
"(. c #98674A",
"). c #876659",
"_. c #976955",
"`. c #8B725C",
"'. c #9C7359",
"]. c #A86748",
"[. c #B66748",
"{. c #AB7345",
"}. c #B8754B",
"|. c #A76857",
" X c #B86856",
".X c #A87459",
"XX c #B67557",
"oX c #856A67",
"OX c #966A66",
"+X c #887468",
"@X c #977669",
"#X c #887774",
"$X c #967A75",
"%X c #886F72",
"&X c #A87767",
"*X c #B57868",
"=X c #B1716C",
"-X c #CA5C47",
";X c #D25D51",
":X c #C96648",
">X c #D76948",
",X c #C87847",
"<X c #DA7548",
"1X c #C86857",
"2X c #D86955",
"3X c #C87756",
"4X c #D77558",
"5X c #E26747",
"6X c #E6784B",
"7X c #E77857",
"8X c #F67956",
"9X c #ED7251",
"0X c #C96965",
"qX c #D86D64",
"wX c #C77767",
"eX c #D97765",
"rX c #CC7878",
"tX c #DC7C75",
"yX c #E67967",
"uX c #F47A66",
"iX c #EA776C",
"pX c #F38838",
"aX c #B5835F",
"sX c #96857A",
"dX c #8B8179",
"fX c #B18371",
"gX c #D48754",
"hX c #E68448",
"jX c #F88649",
"kX c #E98459",
"lX c #F88858",
"zX c #FC965A",
"xX c #FF9945",
"cX c #C78678",
"vX c #D88476",
"bX c #D38569",
"nX c #E68369",
"mX c #F78768",
"MX c #FE9168",
"NX c #E78976",
"BX c #F68974",
"VX c #FB9779",
"CX c #EB937F",
"ZX c #FDAB7B",
"AX c #7A7883",
"SX c #B87B82",
"DX c #7D848A",
"FX c #8D8587",
"GX c #948D8C",
"HX c #A7938F",
"JX c #AFA9A8",
"KX c #D58F8A",
"LX c #E6988C",
"PX c #ED928B",
"IX c #FBAC9A",
"UX c #DAC2C0",
/* pixels */
"nXeXeX4XyXyX:XC rXKXKXLXCXNX4X! =XPXLXLXKXIXIXAXKXLXLXLXLXNX3X! KXLXKXvXKXKXOX` iXPXNXPXKXKXSX] SXrX=XfXrXwXwX] OXcX*X*X&XwXGX/ ",
"6X4X4XnXeXuX;XC rXtXvXNXnXNX1XC ~.BXNXNXiXtXBX#XcXNXiXyXyXmX:XM iXtXyXeXtXBX X~ qXqXqX;X^.Y.v ~ iX;X>X7X2X2X[.W D :X:XG.:X5XXXz ",
"Q.Q.|.W.Q. XW.E =XrXcXwXwXtX^.c *XtX4XeX4XeXiX%XwXBXyX>X>X9X!.c NXqX2XqXqXiX~.C w.w.W.w.w q c I ;X2X<X2X1X;X XW D -X2X:X;X>X XX ",
"X M n Z #XFXFXGX) ) GXFX( ` ) ] ` ` ( ! A A U ] ( L P L S P I ^ ) ! ! C V C W Q C I c z c c c Q A P P I ! L C E M J P J oXP ! z ",
"+   . ^ mXqXqX0X4XnXIXJX=XBXBXuXNXnXBX$X*XmXnXBXCXNXmXHX=XuXyXNXiX4XyXOXD iXqXqX1XeXyXV =XqXqX0XeXwX0X~ GXKXtXW.wXeXqX) GXHXHXJX",
"d.8.r.[ MXmXyXeX7XMXZXfX~.uX7XeXiX2XmX$XwXMXmXmXmXVXMX=XwXBXuX7XuXuX8XOXq 2XqXiXiXiX7Xc 1XuXqX0XiX2XuXE.sXqX9XY.2X5X8XE._.iX2X2X",
"a.Q.(.Z ].XX*X0XwXbXbXsXT.Q.R.Q.Q. X:XL |.2X3X:X!. X1XoX&XuX4X>X6X<X9XoXc -X^.!.^.0X1XV W.1X0X0X0X0X;X~ GX X-XW.tXNXPXI ~.yX1X:X",
"g J E.Y I T @XL A %X$XFX#X' _ ^ AXFX' FX#X) ) ^ ) P L ' ) ) %X( ! ) ~ AX` ` ~ E W ^ E / ^ W E n W C W Q V z z V ! W ! Q Q E E m ",
"d.s.C.!.[. X!.oXG <XzXzXzXzX9XK wX4X1X;X-X4X-XD tX8XuX9X9XiX;XI E.qX;XqX7X7XiXOX~.qXqXiXtX0X1XI  XuXCXCXnXeXwXY qX1X1X:X1X:X_.E ",
"u.F.s.>X>X<X>XP /.7XzXzXzXzXMXE. XiX1X0X1X1X2Xq  X8XuX;X-X^.@.C  X;X;X2X7X2X9XE.W.;X2XtXNXiX;XY.nXVXkX6X6X<X4XE.P.>X<X2X>X>X~.o ",
"5 g g 9 w q.Q.L P [.}.,X,X:XF.S E.1XXX X~.~.!.S J W.w.Y.w q 8 z W.^.W.p.a.W.^.P v w.w.w.^.Q.^.C ~.[.].a.a.a.~.P s.s.a.Q.Q.[.E.o ",
"Q.R.[.U T.D Y.E.W.OXOXE.GXJXFX#X_ ) #X] oX=X=X*X*X|. XoX~ oXP %X#X%XE.! N W.T.E.Y.P OXP P $X).P E.N c M V ` ) oXP I ) c 6 Y.S L ",
"<X<X6X'.p.^.qX0XqX0XrXfXJXUXfXeX:X3X4XfX&XmXmXMXVXVXVXKX@X X|.=X=X=X~.+XD P.5X;X2X2XiX~. X7X6X6X7X7X7X~ c Q.yX7XyXvXNXL h 5XF.l.",
"s.s.J.K W. X X^.0XrXrX=XGXfX<XlXjX8XlXcXOXuXmXVXVXBXBX*XP 1X^.1X^.1Xp.) ~.P.;X>X5X;X;X~. X8X>X<X6X<X8X~ I 2X2X:X1X-XG.J w G.F.s.",
"6 u u [ 7 7 6 4 8 c c I Z i J K K P J ` ~ D K E.oXY E.%XC R.E.W.T.).Y.C I @.h w q.D Y.I N g g h k D q.] N T.J g g f j b o T.D g ",
"[.[. X}.[. X0XoXQ. X*X*XXXXXcX#XOX X|.XXXXXXrXOXP W.Y.D v 7 7 V E.=X&XfXcX].[.L I E.OXOX`._._.Z N ).OX&XOX_.).n L ).J ).).Y ! E ",
"s.!.:Xl.:X:X2XOX3X7XkX4X6X6XMXOX[.<X<X<X<X7X9X*Xq.#.@.< + + + I ^.5X>X6X8XlX8XD < y.C.Z.Z.V.V.5 O B.i.8.t.y.t.o 7.1.<.&.<.&.9 z ",
"w.a.a.!.!.!.1X) T.2X>X4X4XnX2XL XX:X:X:X:Xl.>X.X|.>X:X^.^.^.@.N 0 #.d.G.6X6XI.N @.y.B.i.y.y.B.4 < Z.t.t.y.u.+.o u.<.<.*.=.&.@.M ",
"i S S c 7 F S F I G T.I J P N ( P f G i J T.H T P E.E.J E.%X).( N D T F S T P ( I S K f N S p V N f S p 5 g 7 b f D S p S L T Z ",
"k.[.eX_ :X4X4X4X4X3X7XP k.4XwX1X1X1X>X) cXnXkXkXkXkX4X%XwXnX0XwXwX!.>XGXbXgXwX1X4X3XkX$X).,XT.XX3X}.[.P o p.Q.[.R.R.1XA d l.[.[.",
"u.u.C.P :XG.<XkX<X<XhX).s.>X:X2X4X7X9XP eX8XlXzXzX6XlX@X3X>X1X:X>X!.>X_.,X6X2X-X>X;X6X(.9.P.p.i.C.G.V.k 3 C.s.j.s.u.i.4  .i.u.s.",
"d 0 r.U d 0.r.a.0.p.l.) 8.p.a.[. X!.d.( .Xl.[.l.s.s.C.I }.C.^.u.d.p.:XT }.Z.C.C.d.p.B.k 7.A.7.t.y.y.3.5   8.8.8.&.7.8.a %.8.7.8.",
"L E.oX+XP P J A W L L ) J J J ! C N I ` A M V V M B M ] L U ( A A ] ( ' L L C 6 b b X W A C V M F F B B M u N M X M a W u N 6 X ",
"+.d.y.i.C.C.1.d &X5X<XC.>X7XlXfXq @ O + & 9 d J .X6X<XG.<XnXkXXXfXVXkX7X<X6Xd.o 4 % 4 3 3 3 5 C d u.s.t.t.t.8.6 9.6X4X4X,X4X,XK ",
"< ..1.i.3.y.B.r.T.G.>X9X9X7X8XbX7 # , 0 d e.Q.$X|.P.J.G.J.G.I.XX].I.kXkX6X6Xy.3 8 & * 5 9 , 1 6 - V.B.i.B.B.t.o p.G.F.l.F.j.s.f ",
"& , , > 2 , , q S  .8.7.7.7. ._.X   & $ - + + u h u.u.u.u.u.u.Y K d.s.u.l.s.&.3 4 & 5 h g 8 5 z   %. .>  . .- o h u.0.8.0.&.7.N ",
"U F B Z Z A W ( ' A C V M a 6 B L 7 L ! ( L A ) ` ! ( Z L A L _ ' L M n A ( A L W B a X 4 7 N ) L A B z b M M A a C b b Z W Z / ",
"-.1.1.i 8.1.i.B.B.s.<.K 7.%.a.7.2 +.< E.,XK.K.B.B.F.t.B <XG.:XG.G.<X7.V  XC.d.i.u.B.Z.N , d.p.p.s.s.s.S  .F.[.s.a.a.a.N q.q.q.0 ",
"<.-.1.q %.<.<.1.1.y.1.q.0 } 7.8.......K s.c.c.3.3.B.<.7 C.F.A.A.B.A.2 e 8.G.i.y.B.i.B.N , t.8.p.p.t.t.5 , i.t.p.a.u.s.u +. .< < ",
"2 >  .a 7. .7.&.%.7.&.S q.t.a.u.u.p.a.Y 0.i.2.&...8.t.B 7.8.9.7.7.0.* n q.[.a.r.8.0.a.A % 0 8 5 1 9 9 6 ,  .0 0 0 0 9.b & & * , ",
"L A ( _ _ ` %XdX#X).Y $XsXsXsX#X_ @XY oXOX@X@X_ ( oX) FX#X#XdX' ' #X#XHX).oXoX_ ) sX$XsXoXP `.T ( +XP ` I I F A S S I _ oXT P A ",
"u.} <  . .0 #.XXXXP.i.#.y.G.L.,XXXpXI.:X:XU.pX}.h M.y.t.Z.m.N.}._.6Xs.i.F.i.B.].a.hXI.I.J.K.L.f.z.L.K.@.^.p.#.R.-Xs.!.s.!.a.C.K ",
"j.} ; } < < } r.h.K.<.y.t.y.L.k.0.m.<.w.8.c.N.z.9 x.V.#.n.M.N.k.T.G.y.s.i.t.Z.{.0.c.y.B.L.D.L.r.r.b.6.+.@.0 @.r.u.t.t.+.@...-.5 ",
"9 $ + + O + , G T.i.w.+.7.u.u.(.H =.8 8 8 q.k._.N 0.u.0.h.h.h./.P Y.h l h 9 d F s q.q 0 0.r.k.F k =.l v h q w J k q.D s 9 1 1 M ",
"0 0 +.7 d 7.9 0 q.0 q.P oXP G E.).).OX$X+XK I P P S E._ 7 d f.k.,X}.{.U _.]._.XXT.q.].U `.(.).).E._.'.^ j F j j J S B A (././.(.",
":.1.o.R.r.<.} ; {  ...Y.[...@.t.t.w.#..X*.X.@ ; # O | k.2 ;.n.m.D.L.m.e.[.P.I.6Xi.A.P./.J.S.i.t.F.D.S.g - @ - ; @ O $ y A.4.n.5.",
"-.-.-.q.a.<.....8.t.y.W.u. .@.8...@.t.E.2.| O < # O | f.,XxXjXpXpXpXD.g [.V.B.K.i.A.G.k H.n.n.3.i.5.5.y - ; ; - : : $ y H.4.S.6.",
"5 5 5 M u 5 4 8 4 5 4 A D 8 5 9 9 7 w ~ G 1 & 5 8 3 q J S k j j k k s Z S g 7 N u g h A G k k t 9 s s a % = . . = = . e S g j j ",
"*X}.{.XX].].3X+X(.0.9.w.q.9.q.).(.<XgXgX,X,XhX.XoX[.].,X[.!.s.H '.3X8 0 3Xk.i.+Xj j.j.gXz.h.z.`.{.z.}.,Xz.j.h.B `.z.T.R.e.k.{.J ",
":XB.F.l.l.i.K._.u.o.-.....8...q.k.I.L.L.L.L.pX3XQ.y.1.3.1.3.c.q.l.6X- < K.B.m.r.9.n.5.5.n.5.b.g.j.L.F.C.i.n.n.p k.n.4.3.6.6.n.k ",
"F.i.s.i.u.s.K._.r.o.o.| O.t...q.XXpXJ.pXD.D.I.XXe.O.<.-.-...<.k r.l.O $ u.0.i.J g.S.j.3.:.=.$.l z.F.8.t...u.4.u (.4.6.6.2.6.j.F ",
"g g g y u g p L F s s p g G g L U f k F S K k P Y H D F J ).J ) ^ M B N p p s T R e.e.j F j R +XoX).K A B S f ( J F K p F j G U ",
"$.:.j.g.q.8.7.r.p.r.r.OXXXhXJ.F.S.G.L.{._.D.A.A.n.A.L.(.@XS.8.< 2  .,.f.gXpXpXjXpXpXpX).gXhXhXgXJ.J.u.p Q.s.e.s.u.0.y.L j y z.S.",
"$.-.>.9.1 {  . .%. .O.].{.D.K.n.K.n.m.[.7.x.$.@ - ;.L.r.R.m...< <  .,.k.gXpXpXpXhXL.L.(.z.pXn.4.S.D.$.. u.;.2 <.<.2.1.g r :.5.5.",
"$.-.-.9.9 ; 2 > > ; } E.f.4.i.3.3.3.n._.e.;.-   + | 3.T.T.a.2 , 2 0 <.g.g.u.u.h.h.2.j.k f.j.j.j.j.h.r 4 d =.+ =.%.2 %.7 9.h.*.*.",
"p y 5 N S i 7 M N f N J F j g S L J S Y Y T Y ) ` Y T %XT h T.J L E.D ).oXR ).L ] +X_ dX_ `._ [ B /.R `.g.R /.B L ).U F p 5 g p ",
"w.8.8.8.t.+. .E.].1.1.3.c.i.1._.&Xi.d.d.i.G.D._.&X^.s.!.p.y.V.XX XjX[.F.G.G.P.@X'.hXS.hXhXhXn.aXf.pXm.M.b.pXD.d 9.D.8.d +.0 d 9.",
"u.&.&... . ...).7.;.>.;.3.x.v.].~.| } | <.1.v.q.~.#.t.!.^.8.1.].].P.u.i.F.B.c.R.`.S.S.D.4.5.n.k.f.pXM.M.M.n.D.d r n.8.0 0 0 < 1 ",
"R.=.%.> 1 1 +.L h 2 > r } r } K k { <  .7.*.&.j H q.+.q.q.9 2 J H 0.s 9.r.k l L B d s 9.t d 9.j p l r t t 9 s 5 4 s * * % % % . ",
"p y g L _ _ ( +XF B ( ( ( +X#XsX`./._.Y A oX`.sX`.T ).U U Y L ' ) A )._ ' sXsXHX+XR `.U J (.(.'.'./.(.U U P F D k l g.[ g s k /.",
"| $.$.9.9.j.2.j.2.$.j.}.&XlXhXhXhX6XL.,X* o.b.x.b.b.M.u.&X:Xt.a.7. .i.k.&XJ.H.H.hXS.S._.aXMX:Xd.s.s.J.{.Q.}  .} } | 1.e.=.$.5.4.",
"$ ; | r t $.$.2.=.; $.*.e.I.J.J.S.n.M.H.& ; >.x.,.>.;.=.R.<.<  .< < <.9.@XH.j.S.S.S.m.(..XF.t.u.t.i.H.(.a. .; ; ..$.:.k =.:.u.7.",
"  + : 5 y r r %.r : =./.k f.f.k.k.*.0./.4 : r =.=.=.: 4 k 0 * 1 * & 1 f T g.g.g.g.9.9.F J h g g q g k T /.T.g 5 p k e.[ L K L u ",
"j k k `./.g.'./.U (./.g.(.g..X'.N 7.e.k.{.].(.(.U /./..X_..X&XfXoX.X'.&XOX)..XfXY .XT.).).'..X#XF 3XR.R.R.R.z.).T aXaXaXaX.XaXR ",
"*.>.:.:.>.>.,.2.G A.4.,.;.b.M.S.f o.;.x.;.;.x.;.r.U.M.M.M.M.M.c.r.F.i.A.i.<.1.j.e.K.8.8.@.1.,.0.l c.}  . .{ ;.f.9.,.:.:.:.,.>.: ",
"*.$.$.| $.X.>.*.j n.x.x.>.b.b.,.g ,.;.;.;.-.;.,.g 2.<.2.i.2.3.*.T.6Xs.t.t.t.,.h.7.;.2  .0 =.>.9.1 <.} &.{ < -.9.l -.:.,.:.:.:.$ ",
"t : O O $ = 1 * 6 > 1 : : t t 5 M j s j s k s j U p p p y u u M B j D g h h l K B s i 5 4 5 * B 6 5 p . 4 X 3 p a y y = * * * . ",
"* * * p f 7.1 9 d 0 0.e.j t.&.u.].2 s./.@X.XY.Y.T.q.k.|.q.<.0 d r.0.*.G '.l.e.W.R.p.H.T t H.n.j.A.S.,XT s h.j.j.6.:.h.p 9.r : t ",
"; - { s 0.| ; ; > } o.0.r.v.;.v.<. .;.2.k.v...O.o.o.x.k.%.| | $.| o.;.h ,Xc.&.+.+.$.D.T.7.L.n.n.n.D.D.l : :.b.5.n.,.5.l *.} - : ",
"; - ; s %.{ - - ; @ o.0.7.;.;.x.-.%.o.l a.c.i.3.B.B.b.h. .| { X.| X.o.d k.:. .+.2 | n.K r n.5.6.4.4.n.s = $.:.6.*.$.:.y 7.- $ $ ",
"% = = N p = % 4 . 4 * S U j S K B F p B K e.R.k g k d j S S g g k H e.`./.e.d g N G k ' L F F B B j p L p p j p N 7 5 B B u g 6 ",
"4 8 8 9 0 1 9 9 B 8.&.*.u.<.<.2./.b.n.M.M.n.S.0.f <.u.&.1.&.-.0._.S.j.i.j.S.$.* q.| ..%.&.$.$.* 1 2.&.&.=.=.&.h r $   : l  .6.9.",
"    + O @ @ @ - . ; X.X.X.| X.| g.,.,.,.,.,.x.*.s -.1.-.-.| -.<.f.;.{ { | ,.$.& q.| X.X.| | X.= = } > } } } $.1 : $   , 0 : 2.l ",
".   + @ @ ; @ 2 4 - } X.{ } } | g.,.,.b.,.,.c.*.k 1.<...$.X.-.2.(.1...-.:.A.$.& h 2 > ;  . .=.=   O ; : : > | * d > $ 1 & $ : y "
};
