/* XPM */
static char *_6c4131cfbcc479df83389309e9d287c144vOacO0HfoH975[] = {
/* columns rows colors chars-per-pixel */
"64 64 27 1 ",
"  c gray22",
". c gray33",
"X c #484848",
"o c #EC0000",
"O c #D40000",
"+ c #A40000",
"@ c #E00000",
"# c #C80000",
"$ c #BC0000",
"% c #202020",
"& c #B00000",
"* c #880000",
"= c #640000",
"- c #2C2C2C",
"; c #7C0000",
": c #980000",
"> c #700000",
", c #580000",
"< c #400000",
"1 c #4C0000",
"2 c gray36",
"3 c #646464",
"4 c gray25",
"5 c #343434",
"6 c #4C4C4C",
"7 c gray19",
"8 c white",
/* pixels */
" .XXXXX.XXXXXX.X XXXXXXX......XXXXXXXXX.......XXXX   XX..XXXXX  ",
"ooOOOOOOOOO+XX.ooOOOOOOOOOOOOOOOOOO+X .oooo@@@@@@OOOOO####$$$+X%",
"o#&&O*+O*#+=-X.o$*$*$*$;$:$:$;$;$#+>-X O+#&#&&#>#;#&#*&+;#:#+;--",
"O+;+*+:>+*>=-X.O$**+*>++>:++>:+>+:>,-X.O++;=+*>*+;*++*+;*+,+>=--",
"O;++>:++>+,<-X.O*$+*+>+*+>+>*;+>:;>,-XXO>+=*+=+>+;+*+=+:;+;+>1--",
"#+;*:;+>*+><-X.$$*+**:+>*>+*>:;*>+><- X$>+;+*=+>>++>+*++;+,+*1--",
"$;++>+:>:>,<-XX$#*+>+>+>+>:*>;+>:;>,- X$:+=*+;*>*;+*+=+;*+;+><--",
"$+>*,>;,>*><- .::>>1*>>*>1>*>*>1*>><- X$>>,>>1*1>,*1>1*=1>*>*<--",
";===<<<<<<<<- X;==,,,,,,,,,<<<<<<<<<- X*==========,,,,,,,,,<<<--",
"X--------%%%- .X-----%%%%%--%%%%-----X. -----------%%%%%--------",
"    XXXX     X XXXXXXX   .XXX  XXXXXX. X....2332..XX4 4. .XXX.  ",
"OOO$$$$$$$$$$$+X.XooOOOOOO#######$$$$$$$$$$$$$$$$$$+X4.ooOOOOOO&",
"**&:;&;:*&=&*+< X.o>&#;$=*$**#:+*;*+*+*+;#=#*:$#:#+< X o#;&*&*&:",
"+*+;**=+*=*++><-XXO&>+;++*+=+>=*+;+;+=++*=+*+>*+>+>< X.#&;+*;+:>",
"++*:=+;**:=+*><- XO>+*:**=**>+*=+*;=;**+,*;+>+>++>><-4X#;+++;+;,",
"**+*;;*;+:=+=><- XO>++;+=*+=>+=*+;*;+=+*,+=+>*>+>+><- X#&;+;+:;*",
"+=+>*;:=+=*++><-X.O&,+;+*=*,*>=+*;,;+=*,*+=*+>*+>+><% X&;++,+;*,",
"&=>1;>:>:>,:>><-X.&+>*,>:>*=>*,>:>:=*>**,:>>*1>:>*><%4.&+;>,>:>,",
"111111111111<<< X.+=============,,,,,,,,,,,,,,,,,,<<%X +=<=<<=<1",
"--%---%%%---%%- X X 5------55  5---%%%%%---%%%%----- X.X-------%",
".X  X. . XX    XX.XXX4 4 4 4XXX. .X4   44XX.4  4XXX.X. .4 4.XXX ",
"ooOOOOOOO$$$$$$$$$$$$$$$$$+X..ooOOOOOOOOOO$$$$$$$$$$$$$$$$$$$+X ",
"o*&$;$;$;&*&*&#*&*&*$&=&#>< X.o$>O+&*+&*&:&;=+*>*+;*+:*+;*+,+<- ",
"o&*+:+;>*++*:*+*=+>+*=*+>&<-X2O$:+=+=*>:*=+=*+=+>+;+*+=+:;+;><-%",
"$=++>*,+=+>+*:+=*+>*+*=;+><-.3O$;+;+=+>:+;+;+*=+>>+:>:*++;+,><--",
"$&*+1+,>*+*>;+;*=;+=+*=+>,<-.2O>+>:*=*:>+=*=*+;*>*;+*+=+;*+;><--",
"$>=+1*;+=+,+=+*=*+*=+=*;;&<-X.O#>+>+*+*>+=+,>>1+1+,+1++*=1>*><- ",
"#+=>>>,>1>>*=*>>*>>=>:>:>><- .#+>:>*,>>>>=*>*1+,>+1>*1+,+1+>><--",
"+:==============111111111<<- .+==============,,,,,,,,,,,,<,;,<--",
"X -----------------   ------XXX--------%%%%%-   -%%%------------",
"....XX X   X.33...XXX44  4  4.XXX. .X.X4 4 4X..XX4 4XXX. .XXX.  ",
"$$$$$$$$$+X .OOOOOOOO$$$$$$$$$$$$$$$$$+X..#oOOOOOOOOO$$$$$$$$$$+",
"&+&:#&&#+< X O+=+>++=+*++>+*=++=++>+;+< X.O+;+>++=+;*;+>+*+;+>+*",
";*+:+;+*><-X.O=+;*+;+:>+**>**+*=+>*+=+< ..O+,+>+*=+*+;**:>:;:*>*",
";+:;+;:+><-X O=++;:+>+>+*+,+1**+*>:+;+< .3O+;+>+*+*++;+>:*+:;+>>",
"*;+:+:;*>< X.O:=+;+;,:***>*+=+*=*:>*+;< .3O;++>+=++;;+;+*::*;>**",
"*;+;+;:+>< XXO=+;,:+>**+*+>*1=:=+:>+;+< X.#+;++>+**;+;+>:*+;*+>*",
">*:>>:>>>< XX:=++,+;>+>+=+,*=+*=:>:+=;<-X.#+,+>++*+*+;+>:>:;++>,",
"<1111111<<-XX+=========,,,,,,,,,,,,,,<<-XX+===============,,,,<1",
"-----------X.X-%%%%--   -%%%%%--------- XXX----  X --%%%-------%",
"X. X  XX    XX   XXXXX..XX   .XXX. X X XX.X. .X.23.6XX .X.X. .  ",
"oOOOOOOO$$$$$$$$$$$$$$$$$$$$$$+ . ooOOOOOOOO$$$$$$$$$$$$$$$$$+X%",
"O+**+=++;:+;+>*+=+;+*+=+=++;>+< X.o++=+=+,+>+,+*,:*>+*;+;:>*+<- ",
"O+=+*=+*:;+=*,+:=+,*:*=+;+;+>:<-XXO*+=*=;,*,:;+,+=+>*>+*;:+=*<--",
"O*=+=*>=+=+*;*+=:**,;+1:,*=**><- XO*+==*+;,+;,:+,+>>+>+;+>*=+<--",
"O+*+*=+*;:+;+,*+=+,*+,:+;+++>;<- XO+=+*=+,+>:;;,*=+;*:*:;>+*+<-%",
"O+=*+=+=+=+=+>+==+,*;+;*=:=*>+<% .O+==+=;,+,+,:,+=*>+>;+;:*=><- ",
"#+=+=*>*:;+***+:=*;,=+1+>:;+>+<% .#>+=*=+,;+;,:>*=+>+>+;:>+=+<-%",
"+=========11111111111111111111<-X.+=========,,,,,11111111111<<- ",
"X----------   -%%%%---%%%%--%%--X X------%%%-5 5-%----%%%------%",
" . .X.XXXX.33.X. .X.X4   4X.XX XX. .XXXXXXXX6...6XXXX 7%%7 XX.X ",
"OOOO$$$$$$$$$$$$+X.XooOOOOOOOO$$$$$$$$$$$$$$$+X .oOOOOO$$$$$$$$+",
"+,++=:=+;#;+=+;+<-XXO++++=+1+;+=+=+:+=+=+,+>=< X.O+=*+,+>+>+=+>=",
";;+;+=:;=+,;=*=*<-XXO;+>+=>1;:;+*=*:=;*>*,+=+<5X.O=+,+>+>*+>+*1*",
";,;+=:=;+;,+*=:;<-X4O;;>+=;;+,+1++=+=+=*,**=><-X.O=+>>++*>*>=>**",
":,:==+=+;+,;>=+=<-X4O+1>+=+1+;:=+=*;=+=+*,>:=<-X.O+=,+*>>+>+=>+=",
"+;+=+=*+=+;,*+;*<-X4O1++=+;>*,;1+=+=;;=*>,*>=<-XXO=+*+>+*>>,+>+1",
"+;;=::=:=;,+=+=:<-XXO1+>+=;;*1:=*1+;=+*=+,+,*<- XO=+,>,+>+>,=+11",
":,+==*=;;+,+=>*;<-X.#+1>+=+1*=+=+>=+=;+=*>*=*<- X#==,+,+>+>+=+>=",
"111111111111111<<-XX+<<<<<111111111111111111<<%X.+<<111111111111",
"------------------X.X 55--------------%%%%%-%%% XX------%%%%%--%",
". .   XXXXX.. XXXX.....XXX.XXX.XX XXX4  4  4X4 4.XX .XXXX4 4XXX%",
"...............................................................X",
"                                                                "
};
